<svg xmlns="http://www.w3.org/2000/svg" width="24" height="24" viewBox="0 0 24 24"><g fill="none" stroke="currentColor" stroke-linecap="round" stroke-linejoin="round" stroke-width="1.8"><path d="M20.25 8.25v-6a1.5 1.5 0 0 0-1.5-1.5H2.25a1.5 1.5 0 0 0-1.5 1.5v15a1.5 1.5 0 0 0 1.5 1.5h6"/><path d="M4.5 13.125a1.875 1.875 0 1 0 3.75 0a1.875 1.875 0 0 0-3.75 0m3.75 0V6.33a1.5 1.5 0 0 1 1.026-1.423l4.5-1.25A1.5 1.5 0 0 1 15.75 5.08v3.17m-4.5 9a6 6 0 1 0 12 0a6 6 0 0 0-12 0m6-3v6m0 0L15 18m2.25 2.25L19.5 18"/></g></svg>
