<svg width="24" height="24" viewBox="0 0 24 24" fill="none" xmlns="http://www.w3.org/2000/svg">
<path d="M7.17157 2.75737L10.414 5.99948H13.585L16.8284 2.75737C17.219 2.36685 17.8521 2.36685 18.2426 2.75737C18.6332 3.1479 18.6332 3.78106 18.2426 4.17158L16.414 5.99948L18.5 6.00001C20.433 6.00001 22 7.56701 22 9.50001V17.5C22 19.433 20.433 21 18.5 21H5.5C3.567 21 2 19.433 2 17.5V9.50001C2 7.56701 3.567 6.00001 5.5 6.00001L7.585 5.99948L5.75736 4.17158C5.36684 3.78106 5.36684 3.1479 5.75736 2.75737C6.14788 2.36685 6.78105 2.36685 7.17157 2.75737ZM18.5 8.00001H5.5C4.7203 8.00001 4.07955 8.5949 4.00687 9.35555L4 9.50001V17.5C4 18.2797 4.59489 18.9205 5.35554 18.9931L5.5 19H18.5C19.2797 19 19.9204 18.4051 19.9931 17.6445L20 17.5V9.50001C20 8.67158 19.3284 8.00001 18.5 8.00001Z" fill="#17C964"/>
<path d="M15.1767 12.643C15.8229 13.0316 15.8229 13.9684 15.1766 14.357L10.9158 16.9189C10.2493 17.3197 9.40048 16.8396 9.40049 16.0619L9.40059 10.9379C9.4006 10.1602 10.2494 9.68015 10.9159 10.0809L15.1767 12.643Z" fill="#17C964"/>
</svg>
