<svg width="1024" height="928" viewBox="0 0 1024 928" fill="currentColor" xmlns="http://www.w3.org/2000/svg">
<g clip-path="url(#clip0_173_12)">
<path d="M977.2 208.2C1010.6 244.4 1026 287.6 1023.8 339.6V744.4C1023 797.2 1005.4 840.6 970.8 874.6C936.4 908.6 892.6 926.4 839.8 928H184.04C131.14 926.4 87.62 908.4 53.48 873.6C19.364 838.8 1.534 793 0 736.4V339.6C1.534 287.6 19.364 244.4 53.48 208.2C87.62 175.5 131.14 157.54 184.04 156H242.8L192.1 104.38C180.6 92.92 174.84 78.38 174.84 60.8C174.84 43.2 180.6 28.68 192.1 17.206C203.6 5.736 218.2 0 235.8 0C253.4 0 268 5.736 279.6 17.206L426.2 156H602.2L751.2 17.206C763.4 5.736 778.4 0 796 0C813.6 0 828.2 5.736 839.8 17.206C851.2 28.68 857 43.2 857 60.8C857 78.38 851.2 92.92 839.8 104.38L789.2 156H847.8C900.6 157.54 943.8 175.5 977.2 208.2ZM899.6 347.6C898.8 328.4 892.2 312.8 878.2 300.6C867.8 288.4 850.2 281.8 832.8 281H192.1C172.92 281.8 157.2 288.4 144.94 300.6C132.66 312.8 126.14 328.4 125.38 347.6V736.4C125.38 754.8 131.9 770.4 144.94 783.4C157.98 796.4 173.7 803 192.1 803H832.8C851.2 803 866.8 796.4 879.4 783.4C892 770.4 898.8 754.8 899.6 736.4V347.6Z" fill="currentColor"/>
<path d="M627.397 517.134L412.072 388.975C409.442 387.428 406.735 386.5 403.641 386.5C395.211 386.5 388.327 393.461 388.327 401.969H388.25V668.031H388.327C388.327 676.539 395.211 683.5 403.641 683.5C406.813 683.5 409.442 682.417 412.304 680.87L627.397 552.866C632.502 548.613 635.75 542.193 635.75 535C635.75 527.807 632.502 521.465 627.397 517.134Z" fill="currentColor"/>
</g>
<defs>
<clipPath id="clip0_173_12">
<rect width="1024" height="928" fill="currentColor"/>
</clipPath>
</defs>
</svg>
