<svg width="884" height="884" viewBox="0 0 884 884" fill="currentColor" xmlns="http://www.w3.org/2000/svg">
<rect x="219" y="256" width="454" height="386" fill="black"/>
<path d="M442 810.333C238.575 810.333 73.6667 645.423 73.6667 442C73.6667 238.575 238.575 73.6667 442 73.6667C645.423 73.6667 810.333 238.575 810.333 442C810.333 645.423 645.423 810.333 442 810.333ZM391.24 309.937C388.82 308.324 385.977 307.463 383.067 307.463C374.93 307.463 368.333 314.059 368.333 322.196V561.804C368.333 564.714 369.195 567.557 370.809 569.977C375.321 576.747 384.47 578.578 391.24 574.062L570.946 454.258C572.563 453.179 573.952 451.79 575.031 450.173C579.547 443.403 577.716 434.254 570.946 429.742L391.24 309.937Z" fill="currentColor"/>
</svg>
