<svg xmlns="http://www.w3.org/2000/svg" width="24" height="24" viewBox="0 0 24 24"><g fill="none" stroke="currentColor" stroke-linecap="round" stroke-linejoin="round" stroke-width="2"><path d="M11.25 17.25a6 6 0 1 0 12 0a6 6 0 0 0-12 0m6-3v6m0 0L15 18m2.25 2.25L19.5 18"/><path d="M8.25 20.25h-6a1.5 1.5 0 0 1-1.5-1.5V2.25a1.5 1.5 0 0 1 1.5-1.5h10.629a1.5 1.5 0 0 1 1.06.439l2.872 2.872a1.5 1.5 0 0 1 .439 1.06V8.25"/><path d="M6.241 12.678a.685.685 0 0 1-.991-.613v-4.63a.685.685 0 0 1 .991-.613l4.631 2.316a.685.685 0 0 1 0 1.224z"/></g></svg>
